HIERARCHY
ROOT Hips
{
	OFFSET 0.000000 0.000000 0.000000
	CHANNELS 6 Xposition Yposition Zposition Xrotation Yrotation Zrotation
	JOINT LeftUpLeg_virtual
	{
		OFFSET 0.000000 0.000000 0.000000
		CHANNELS 3 Xrotation Yrotation Zrotation
		JOINT LeftUpLeg
		{
			OFFSET 15.427100 -6.655098 0.678600
			CHANNELS 3 Xrotation Yrotation Zrotation
			JOINT LeftLeg
			{
				OFFSET 4.081073 -39.591068 13.024000
				CHANNELS 3 Xrotation Yrotation Zrotation
				JOINT LeftFoot
				{
					OFFSET -4.081074 -37.707932 -15.979700
					CHANNELS 3 Xrotation Yrotation Zrotation
					JOINT LeftToeBase
					{
						OFFSET 5.346399 -15.068900 20.645000
						CHANNELS 3 Xrotation Yrotation Zrotation
						JOINT LeftToe_End
						{
							OFFSET 2.754700 0.931300 11.300900
							CHANNELS 3 Xrotation Yrotation Zrotation
							End Site
							{
								OFFSET 0 0 0
							}
						}
					}
				}
			}
		}
	}
	JOINT RightUpLeg_virtual
	{
		OFFSET 0.000000 0.000000 0.000000
		CHANNELS 3 Xrotation Yrotation Zrotation
		JOINT RightUpLeg
		{
			OFFSET -15.569500 -6.655098 0.678600
			CHANNELS 3 Xrotation Yrotation Zrotation
			JOINT RightLeg
			{
				OFFSET -4.081825 -39.591045 13.023800
				CHANNELS 3 Xrotation Yrotation Zrotation
				JOINT RightFoot
				{
					OFFSET 4.081824 -37.707954 -15.979600
					CHANNELS 3 Xrotation Yrotation Zrotation
					JOINT RightToeBase
					{
						OFFSET -5.346400 -15.068900 20.645000
						CHANNELS 3 Xrotation Yrotation Zrotation
						JOINT RightToe_End
						{
							OFFSET -2.754700 0.931300 11.300900
							CHANNELS 3 Xrotation Yrotation Zrotation
							End Site
							{
								OFFSET 0 0 0
							}
						}
					}
				}
			}
		}
	}
	JOINT Spine_virtual
	{
		OFFSET 0.000000 0.000000 0.000000
		CHANNELS 3 Xrotation Yrotation Zrotation
		JOINT Spine
		{
			OFFSET -0.279200 12.230698 -2.892100
			CHANNELS 3 Xrotation Yrotation Zrotation
			JOINT Spine1
			{
				OFFSET -0.232667 10.192268 -1.242267
				CHANNELS 3 Xrotation Yrotation Zrotation
				JOINT Spine1_split
				{
					OFFSET -0.232667 10.192268 -1.242267
					CHANNELS 3 Xrotation Yrotation Zrotation
					JOINT Spine2
					{
						OFFSET -0.232667 10.192268 -1.242267
						CHANNELS 3 Xrotation Yrotation Zrotation
						JOINT Neck_virtual
						{
							OFFSET 0.000000 0.000000 0.000000
							CHANNELS 3 Xrotation Yrotation Zrotation
							JOINT Neck
							{
								OFFSET -0.418800 17.814194 8.416900
								CHANNELS 3 Xrotation Yrotation Zrotation
								JOINT Head
								{
									OFFSET 0.000000 7.031097 3.806800
									CHANNELS 3 Xrotation Yrotation Zrotation
									JOINT HeadTop_End
									{
										OFFSET 0.000000 24.646606 12.978600
										CHANNELS 3 Xrotation Yrotation Zrotation
										End Site
										{
											OFFSET 0 0 0
										}
									}
								}
							}
						}
						JOINT LeftShoulder_virtual
						{
							OFFSET 0.000000 0.000000 0.000000
							CHANNELS 3 Xrotation Yrotation Zrotation
							JOINT LeftShoulder
							{
								OFFSET 8.476499 7.247704 -3.868750
								CHANNELS 3 Xrotation Yrotation Zrotation
								JOINT LeftShoulder_split
								{
									OFFSET 8.476499 7.247704 -3.868750
									CHANNELS 3 Xrotation Yrotation Zrotation
									JOINT LeftArm
									{
										OFFSET 9.308998 -2.777710 0.208600
										CHANNELS 3 Xrotation Yrotation Zrotation
										JOINT LeftForeArm
										{
											OFFSET 29.972298 0.000000 0.000000
											CHANNELS 3 Xrotation Yrotation Zrotation
											JOINT LeftHand
											{
												OFFSET 26.026505 0.000000 0.000000
												CHANNELS 3 Xrotation Yrotation Zrotation
												End Site
												{
													OFFSET 0 0 0
												}
											}
										}
									}
								}
							}
						}
						JOINT RightShoulder_virtual
						{
							OFFSET 0.000000 0.000000 0.000000
							CHANNELS 3 Xrotation Yrotation Zrotation
							JOINT RightShoulder
							{
								OFFSET -7.570500 7.247704 -3.868750
								CHANNELS 3 Xrotation Yrotation Zrotation
								JOINT RightShoulder_split
								{
									OFFSET -7.570500 7.247704 -3.868750
									CHANNELS 3 Xrotation Yrotation Zrotation
									JOINT RightArm
									{
										OFFSET -9.308998 -2.777710 0.208500
										CHANNELS 3 Xrotation Yrotation Zrotation
										JOINT RightForeArm
										{
											OFFSET -29.972300 0.000000 0.000000
											CHANNELS 3 Xrotation Yrotation Zrotation
											JOINT RightHand
											{
												OFFSET -26.026505 0.000000 0.000000
												CHANNELS 3 Xrotation Yrotation Zrotation
												End Site
												{
													OFFSET 0 0 0
												}
											}
										}
									}
								}
							}
						}
					}
				}
			}
		}
	}
}
MOTION
Frames: 9
Frame Time: 0.03333333
4.809297 97.488823 -12.628731 0.000000 0.000000 0.000000 -0.674504 8.605912 -2.153053 -12.205843 19.905102 13.443376 10.409398 2.549701 3.230044 2.184968 1.399550 -17.983664 -2.422533 -3.744510 0.702205 0.000000 0.000000 0.000000 -0.176371 8.571173 -2.281937 8.543782 -8.561569 2.107165 -2.177491 -2.240353 1.826466 -7.994049 -7.957333 10.601091 -1.679342 0.334134 -5.390556 0.000000 0.000000 0.000000 -0.732246 10.970982 -2.486157 2.810053 -0.461929 4.252517 -0.338713 0.615712 1.916836 0.130803 -0.069063 -0.048705 0.000000 0.000000 0.000000 0.281560 3.250814 1.632749 12.637576 2.660436 1.762216 -9.693773 -18.898707 -14.219731 0.000000 0.000000 0.000000 -0.546077 1.480625 0.995239 -1.386054 -17.468702 -14.889821 -0.550777 -0.152111 -3.774000 13.900261 -22.427341 -64.943167 -0.058195 -6.139981 1.926870 0.000000 0.000000 0.000000 0.594991 2.093182 1.740386 0.127736 9.254483 14.983666 -1.930649 0.673792 1.027834 12.166730 26.997690 58.356959 -6.489344 2.715725 1.781931 0.000000 0.000000 0.000000 
4.827132 97.484558 -12.585281 0.000000 0.000000 0.000000 -0.716339 8.460139 -2.170838 -12.131899 19.873603 13.434652 10.482578 2.574861 3.219147 2.152154 1.522035 -17.955712 -2.427871 -3.754768 0.702391 0.000000 0.000000 0.000000 -0.196493 8.509668 -2.289674 8.592906 -8.506075 2.122255 -2.218657 -2.203368 1.804425 -7.926413 -8.083571 10.570991 -1.467923 0.314355 -5.313932 0.000000 0.000000 0.000000 -0.808738 10.859553 -2.509735 2.854248 -0.481187 4.243487 -0.333172 0.606569 1.926363 0.134386 -0.071591 -0.052162 0.000000 0.000000 0.000000 0.272716 3.249442 1.642476 12.625308 2.666444 1.779037 -9.666370 -18.891361 -14.153324 0.000000 0.000000 0.000000 -0.536770 1.471261 1.006924 -1.384397 -17.507207 -14.905575 -0.591269 -0.201783 -3.744428 13.855680 -22.416128 -64.946875 -0.097212 -6.226044 1.903333 0.000000 0.000000 0.000000 0.585884 2.080375 1.747469 0.117598 9.173705 14.975098 -1.932846 0.686319 1.083893 12.299438 26.969729 58.242068 -6.474855 2.649591 1.806568 0.000000 0.000000 0.000000 
4.838128 97.462021 -12.549278 0.000000 0.000000 0.000000 -0.803011 8.193899 -2.201858 -11.992966 19.876429 13.470880 10.614407 2.627581 3.219507 2.034040 1.753749 -17.960512 -2.471581 -3.765481 0.685052 0.000000 0.000000 0.000000 -0.267725 8.321534 -2.308870 8.578889 -8.401916 2.135845 -2.172743 -2.056145 1.783250 -7.840570 -8.272660 10.618225 -1.199051 0.304852 -5.399037 0.000000 0.000000 0.000000 -0.917945 10.665205 -2.549584 2.924792 -0.493022 4.239465 -0.325274 0.584264 1.942327 0.136709 -0.068547 -0.059415 0.000000 0.000000 0.000000 0.265338 3.235451 1.651034 12.615372 2.688764 1.819160 -9.690140 -18.846667 -14.036340 0.000000 0.000000 0.000000 -0.524642 1.446849 1.026192 -1.380731 -17.526189 -14.885561 -0.621234 -0.239022 -3.765141 13.788798 -22.358595 -64.952893 -0.053094 -6.260889 1.930953 0.000000 0.000000 0.000000 0.572790 2.051964 1.757368 0.128115 9.127192 14.965265 -2.002431 0.750850 1.174769 12.603465 26.965481 58.008394 -6.444755 2.601393 1.815761 0.000000 0.000000 0.000000 
4.827419 97.427994 -12.516735 0.000000 0.000000 0.000000 -0.935208 7.836705 -2.239358 -11.813335 19.905908 13.532919 10.784006 2.701485 3.224646 1.854676 2.071956 -17.993356 -2.537653 -3.775847 0.660402 0.000000 0.000000 0.000000 -0.377151 8.032644 -2.333608 8.525682 -8.257875 2.157790 -2.069601 -1.807713 1.755514 -7.779807 -8.503802 10.709148 -0.852079 0.305070 -5.634393 0.000000 0.000000 0.000000 -1.057997 10.424289 -2.597867 3.015947 -0.492391 4.239112 -0.317183 0.552650 1.961056 0.136611 -0.058172 -0.061969 0.000000 0.000000 0.000000 0.260561 3.210129 1.655796 12.601199 2.722928 1.890459 -9.763758 -18.779923 -13.856064 0.000000 0.000000 0.000000 -0.511244 1.410634 1.048081 -1.378317 -17.529650 -14.831351 -0.667805 -0.242249 -3.826187 13.723732 -22.222645 -64.968766 0.056420 -6.237436 2.000890 0.000000 0.000000 0.000000 0.557349 2.010935 1.768342 0.155086 9.128083 14.944476 -2.084111 0.853207 1.276744 13.058706 27.049241 57.675142 -6.390517 2.568795 1.796227 0.000000 0.000000 0.000000 
4.804158 97.383034 -12.498665 0.000000 0.000000 0.000000 -1.095941 7.430430 -2.278121 -11.603579 19.948455 13.593367 10.968900 2.795678 3.230601 1.649458 2.452299 -18.041368 -2.596893 -3.786256 0.631862 0.000000 0.000000 0.000000 -0.519744 7.677025 -2.359330 8.444263 -8.083781 2.186395 -1.929374 -1.477569 1.712183 -7.765375 -8.772534 10.800644 -0.421557 0.308787 -5.990482 0.000000 0.000000 0.000000 -1.227752 10.142168 -2.645108 3.123949 -0.474888 4.240578 -0.306455 0.518278 1.978338 0.132959 -0.049447 -0.058259 0.000000 0.000000 0.000000 0.256360 3.177783 1.651999 12.575854 2.757971 2.003829 -9.867164 -18.739760 -13.602996 0.000000 0.000000 0.000000 -0.498361 1.365037 1.068531 -1.378988 -17.525929 -14.743366 -0.716250 -0.227526 -3.912880 13.670311 -21.995963 -64.984735 0.206285 -6.191130 2.096709 0.000000 0.000000 0.000000 0.542974 1.962188 1.776449 0.196535 9.187764 14.895615 -2.178211 0.940226 1.377662 13.654153 27.269795 57.235612 -6.304507 2.581083 1.734405 0.000000 0.000000 0.000000 
4.774995 97.337143 -12.507736 0.000000 0.000000 0.000000 -1.266091 7.012815 -2.308932 -11.378386 19.986477 13.633326 11.143930 2.908757 3.234834 1.450499 2.862483 -18.099957 -2.650333 -3.796088 0.603828 0.000000 0.000000 0.000000 -0.687077 7.294592 -2.375518 8.350040 -7.890222 2.212510 -1.760942 -1.083584 1.649469 -7.783887 -9.064699 10.894516 0.039357 0.307435 -6.432994 0.000000 0.000000 0.000000 -1.419916 9.851250 -2.683466 3.248144 -0.444578 4.240895 -0.291860 0.483364 1.989450 0.130005 -0.053032 -0.053841 0.000000 0.000000 0.000000 0.252414 3.142211 1.638419 12.537367 2.785801 2.160428 -9.971157 -18.790959 -13.275084 0.000000 0.000000 0.000000 -0.488759 1.311814 1.082062 -1.383724 -17.522271 -14.625313 -0.750672 -0.205841 -3.995266 13.641801 -21.655188 -65.003416 0.369895 -6.150591 2.201500 0.000000 0.000000 0.000000 0.528092 1.906600 1.778619 0.246275 9.312238 14.819567 -2.269871 1.005384 1.465261 14.350274 27.617829 56.714486 -6.184725 2.676476 1.623966 0.000000 0.000000 0.000000 
4.744464 97.305771 -12.521168 0.000000 0.000000 0.000000 -1.435531 6.594566 -2.323826 -11.131729 20.027105 13.653084 11.288018 3.039617 3.235223 1.277390 3.272483 -18.163114 -2.706066 -3.806264 0.572257 0.000000 0.000000 0.000000 -0.866649 6.899097 -2.377192 8.238048 -7.677986 2.227354 -1.559111 -0.625922 1.572873 -7.779255 -9.345768 11.016290 0.435959 0.298838 -6.927411 0.000000 0.000000 0.000000 -1.625731 9.538728 -2.710271 3.383716 -0.404838 4.234041 -0.272030 0.448057 1.991698 0.126937 -0.068525 -0.055018 0.000000 0.000000 0.000000 0.247256 3.104356 1.615307 12.491284 2.806445 2.349775 -10.053004 -18.986512 -12.884181 0.000000 0.000000 0.000000 -0.482347 1.251741 1.086621 -1.391284 -17.526752 -14.482209 -0.796071 -0.182986 -4.043084 13.635919 -21.202558 -65.033653 0.521947 -6.126954 2.297243 0.000000 0.000000 0.000000 0.511065 1.845210 1.773287 0.306772 9.496516 14.724373 -2.361365 1.073494 1.557233 15.051230 28.019536 56.151726 -6.039719 2.924296 1.473519 0.000000 0.000000 0.000000 
4.715406 97.290382 -12.525986 0.000000 0.000000 0.000000 -1.594558 6.159525 -2.322840 -10.860973 20.078080 13.661273 11.393803 3.183812 3.228932 1.145312 3.656902 -18.230724 -2.759923 -3.817741 0.527632 0.000000 0.000000 0.000000 -1.041644 6.505850 -2.366541 8.112526 -7.456025 2.231683 -1.323197 -0.103509 1.486184 -7.756210 -9.601880 11.153156 0.760718 0.278480 -7.436030 0.000000 0.000000 0.000000 -1.827536 9.194515 -2.724473 3.523598 -0.359952 4.221489 -0.248918 0.412630 1.986230 0.125930 -0.088645 -0.058664 0.000000 0.000000 0.000000 0.236117 3.062211 1.587939 12.440830 2.824008 2.549547 -10.107546 -19.338207 -12.454695 0.000000 0.000000 0.000000 -0.481612 1.184951 1.081231 -1.399921 -17.543056 -14.326277 -0.824526 -0.184198 -4.066816 13.654149 -20.674496 -65.078992 0.661457 -6.126752 2.374707 0.000000 0.000000 0.000000 0.491790 1.779086 1.760043 0.372700 9.734808 14.627634 -2.441323 1.108033 1.680533 15.598723 28.373712 55.620655 -5.877908 3.378227 1.295888 0.000000 0.000000 0.000000 
4.684679 97.286575 -12.529396 0.000000 0.000000 0.000000 -1.740591 5.705773 -2.310112 -10.574340 20.152219 13.675639 11.463682 3.333869 3.214233 1.050571 4.007708 -18.316571 -2.804080 -3.828951 0.465115 0.000000 0.000000 0.000000 -1.192188 6.118906 -2.343147 7.977405 -7.241983 2.231268 -1.076108 0.463988 1.392902 -7.732829 -9.827438 11.272003 1.121388 0.241480 -7.931985 0.000000 0.000000 0.000000 -2.013896 8.821697 -2.728583 3.657406 -0.311335 4.208306 -0.229281 0.374606 1.971963 0.123085 -0.100201 -0.059961 0.000000 0.000000 0.000000 0.218374 3.013990 1.559959 12.409230 2.853314 2.728716 -10.140520 -19.826562 -12.017007 0.000000 0.000000 0.000000 -0.493591 1.114041 1.064245 -1.403741 -17.556559 -14.160350 -0.852144 -0.216227 -4.064847 13.701384 -20.121510 -65.139753 0.791938 -6.137102 2.431728 0.000000 0.000000 0.000000 0.463732 1.708647 1.741044 0.437183 10.019451 14.535851 -2.507357 1.056301 1.856572 15.858531 28.601477 55.204878 -5.714636 4.087037 1.104953 0.000000 0.000000 0.000000 
